#N canvas 534 170 814 812 10;
#X obj 421 773 outlet~;
#X obj 65 165 inlet;
#X obj 421 746 *~;
#X obj 727 222 loadbang;
#X msg 727 243 1;
#X obj 727 319 vsl 25 311 0 1 0 0 empty empty Master -12 -9 0 10 -257985
-1 -1 31000 1;
#X obj 65 196 route 0 1 2 3 4 5 6 7;
#X obj 65 317 sampler;
#X obj 557 317 sampler;
#X obj 229 317 sampler;
#X obj 393 317 sampler;
#X obj 65 475 sampler;
#X obj 229 475 sampler;
#X obj 393 475 sampler;
#X obj 557 475 sampler;
#X connect 1 0 6 0;
#X connect 2 0 0 0;
#X connect 3 0 4 0;
#X connect 4 0 5 0;
#X connect 5 0 2 1;
#X connect 6 0 7 0;
#X connect 6 1 9 0;
#X connect 6 2 10 0;
#X connect 6 3 8 0;
#X connect 6 4 11 0;
#X connect 6 5 12 0;
#X connect 6 6 13 0;
#X connect 6 7 14 0;
#X connect 7 0 2 0;
#X connect 8 0 2 0;
#X connect 9 0 2 0;
#X connect 10 0 2 0;
#X connect 11 0 2 0;
#X connect 12 0 2 0;
#X connect 13 0 2 0;
#X connect 14 0 2 0;
#X coords 0 -1 1 1 699 339 1 60 300;
