#N canvas 747 217 814 863 10;
#X obj 421 773 outlet~;
#X obj 66 60 inlet;
#X obj 66 214 sel 1;
#X obj 421 746 *~;
#X obj 107 214 sel 1;
#X obj 727 222 loadbang;
#X msg 727 243 1;
#X obj 148 214 sel 1;
#X obj 66 176 unpack f f f f f f f f;
#X obj 189 214 sel 1;
#X obj 230 214 sel 1;
#X obj 271 214 sel 1;
#X obj 312 214 sel 1;
#X obj 353 214 sel 1;
#X obj 727 319 vsl 25 311 0 1 0 0 empty empty Master -12 -9 0 10 -257985
-1 -1 30800 1;
#X obj 66 90 route list load;
#X obj 476 202 route 0 1 2 3 4 5 6 7;
#X msg 476 176 \$1 load \$2;
#X text 474 155 Fix and reroute load messages;
#X obj 557 317 sampler;
#X obj 65 317 sampler;
#X obj 229 317 sampler;
#X obj 393 317 sampler;
#X obj 65 475 sampler;
#X obj 229 475 sampler;
#X obj 393 475 sampler;
#X obj 557 475 sampler;
#X connect 1 0 15 0;
#X connect 2 0 20 0;
#X connect 3 0 0 0;
#X connect 4 0 21 0;
#X connect 5 0 6 0;
#X connect 6 0 14 0;
#X connect 7 0 22 0;
#X connect 8 0 2 0;
#X connect 8 1 4 0;
#X connect 8 2 7 0;
#X connect 8 3 9 0;
#X connect 8 4 10 0;
#X connect 8 5 11 0;
#X connect 8 6 12 0;
#X connect 8 7 13 0;
#X connect 9 0 19 0;
#X connect 10 0 23 0;
#X connect 11 0 24 0;
#X connect 12 0 25 0;
#X connect 13 0 26 0;
#X connect 14 0 3 1;
#X connect 15 0 8 0;
#X connect 15 1 17 0;
#X connect 16 0 20 0;
#X connect 16 1 21 0;
#X connect 16 2 22 0;
#X connect 16 3 19 0;
#X connect 16 4 23 0;
#X connect 16 5 24 0;
#X connect 16 6 25 0;
#X connect 16 7 26 0;
#X connect 17 0 16 0;
#X connect 19 0 3 0;
#X connect 20 0 3 0;
#X connect 21 0 3 0;
#X connect 22 0 3 0;
#X connect 23 0 3 0;
#X connect 24 0 3 0;
#X connect 25 0 3 0;
#X connect 26 0 3 0;
#X coords 0 -1 1 1 699 339 1 60 300;
