#N canvas 594 323 980 625 10;
#X obj 261 120 sequencer_viz;
#X obj 261 164 sequencer;
#X obj 25 14 inlet;
#X obj 42 580 outlet;
#X msg 114 224 0 bang;
#X msg 114 268 1 bang;
#X msg 114 312 2 bang;
#X msg 114 356 3 bang;
#X msg 114 400 4 bang;
#X msg 114 444 5 bang;
#X msg 114 488 6 bang;
#X msg 114 532 7 bang;
#X obj 261 252 sequencer;
#X obj 261 208 sequencer;
#X obj 261 296 sequencer;
#X obj 261 340 sequencer;
#X obj 261 428 sequencer;
#X obj 261 384 sequencer;
#X obj 261 472 sequencer;
#X obj 25 50 route 0 1 2 3 4 5 6 7;
#X text 65 13 Messages to the sequencers in the form of "X message"
when X is the number of the sequencer.;
#N canvas 67 275 450 300 phase_to_step 0;
#X obj 12 37 * 4;
#X obj 12 89 int;
#X obj 12 116 change;
#X obj 12 14 inlet;
#X text 56 13 Convert ableton link phase counter to 16 steps sequence
number;
#X obj 12 143 outlet;
#X obj 12 63 t b f;
#X connect 0 0 6 0;
#X connect 1 0 2 0;
#X connect 2 0 5 0;
#X connect 3 0 0 0;
#X connect 6 0 1 0;
#X connect 6 1 1 1;
#X restore 544 68 pd phase_to_step;
#X obj 510 14 inlet;
#X text 557 15 Abelton Link messages (tempo \, beats in measure etc).
;
#X obj 510 44 abl_link~ 1 0 4;
#X connect 1 0 4 0;
#X connect 2 0 19 0;
#X connect 4 0 3 0;
#X connect 5 0 3 0;
#X connect 6 0 3 0;
#X connect 7 0 3 0;
#X connect 8 0 3 0;
#X connect 9 0 3 0;
#X connect 10 0 3 0;
#X connect 11 0 3 0;
#X connect 12 0 6 0;
#X connect 13 0 5 0;
#X connect 14 0 7 0;
#X connect 15 0 8 0;
#X connect 16 0 10 0;
#X connect 17 0 9 0;
#X connect 18 0 11 0;
#X connect 19 0 1 0;
#X connect 19 1 13 0;
#X connect 19 2 12 0;
#X connect 19 3 14 0;
#X connect 19 4 15 0;
#X connect 19 5 17 0;
#X connect 19 6 16 0;
#X connect 19 7 18 0;
#X connect 21 0 0 0;
#X connect 21 0 13 0;
#X connect 21 0 1 0;
#X connect 21 0 12 0;
#X connect 21 0 14 0;
#X connect 21 0 15 0;
#X connect 21 0 17 0;
#X connect 21 0 16 0;
#X connect 21 0 18 0;
#X connect 22 0 24 0;
#X connect 24 1 21 0;
#X coords 0 -1 1 1 416 416 1 261 100;
