#N canvas 215 394 737 680 10;
#X obj 261 120 sequencer_viz;
#X obj 261 164 sequencer;
#X obj 200 50 inlet;
#X text 240 50 Step number;
#X obj 94 580 outlet;
#X msg 166 224 0 bang;
#X msg 166 268 1 bang;
#X msg 166 312 2 bang;
#X msg 166 356 3 bang;
#X msg 166 400 4 bang;
#X msg 166 444 5 bang;
#X msg 166 488 6 bang;
#X msg 166 532 7 bang;
#X obj 261 252 sequencer;
#X obj 261 208 sequencer;
#X obj 261 296 sequencer;
#X obj 261 340 sequencer;
#X obj 261 428 sequencer;
#X obj 261 384 sequencer;
#X obj 261 472 sequencer;
#X connect 1 0 5 0;
#X connect 2 0 0 0;
#X connect 2 0 1 0;
#X connect 2 0 14 0;
#X connect 2 0 13 0;
#X connect 2 0 15 0;
#X connect 2 0 16 0;
#X connect 2 0 18 0;
#X connect 2 0 17 0;
#X connect 2 0 19 0;
#X connect 5 0 4 0;
#X connect 6 0 4 0;
#X connect 7 0 4 0;
#X connect 8 0 4 0;
#X connect 9 0 4 0;
#X connect 10 0 4 0;
#X connect 11 0 4 0;
#X connect 12 0 4 0;
#X connect 13 0 7 0;
#X connect 14 0 6 0;
#X connect 15 0 8 0;
#X connect 16 0 9 0;
#X connect 17 0 11 0;
#X connect 18 0 10 0;
#X connect 19 0 12 0;
#X coords 0 -1 1 1 416 416 1 261 100;
