#N canvas 84 368 737 680 10;
#X obj 261 120 sequencer_viz;
#X obj 261 164 sequencer;
#X obj 166 50 inlet;
#X text 206 50 Step number;
#X text 206 74 Make sure to trigger the first sequencer last;
#X obj 48 602 outlet;
#X obj 166 73 t f f;
#X obj 261 252 sequencer;
#X obj 261 208 sequencer;
#X obj 261 296 sequencer;
#X obj 261 340 sequencer;
#X obj 261 428 sequencer;
#X obj 261 384 sequencer;
#X obj 261 472 sequencer;
#X obj 48 576 pack f f f f f f f f;
#X connect 1 0 14 0;
#X connect 2 0 6 0;
#X connect 6 0 1 0;
#X connect 6 1 0 0;
#X connect 6 1 7 0;
#X connect 6 1 8 0;
#X connect 6 1 9 0;
#X connect 6 1 10 0;
#X connect 6 1 12 0;
#X connect 6 1 11 0;
#X connect 6 1 13 0;
#X connect 7 0 14 2;
#X connect 8 0 14 1;
#X connect 9 0 14 3;
#X connect 10 0 14 4;
#X connect 11 0 14 6;
#X connect 12 0 14 5;
#X connect 13 0 14 7;
#X connect 14 0 5 0;
#X coords 0 -1 1 1 416 416 1 261 100;
