#N canvas 620 363 450 379 10;
#X obj 36 63 inlet;
#X obj 36 315 outlet;
#X obj 116 10 loadbang;
#X obj 226 90 f \$2;
#X obj 36 180 /;
#X obj 310 90 f \$4;
#X obj 36 207 *;
#X obj 209 10 inlet;
#X obj 116 53 bng 15 250 50 0 empty empty empty 17 7 0 10 -262144 -1
-1;
#X obj 184 90 f \$1;
#X obj 226 139 -;
#X obj 36 152 -;
#X obj 251 10 inlet;
#X obj 268 90 f \$3;
#X obj 310 139 -;
#X obj 293 10 inlet;
#X obj 36 234 +;
#X obj 36 261 max;
#X obj 36 288 min;
#X obj 335 10 inlet;
#X connect 0 0 11 0;
#X connect 2 0 8 0;
#X connect 3 0 10 0;
#X connect 4 0 6 0;
#X connect 5 0 14 0;
#X connect 5 0 18 1;
#X connect 6 0 16 0;
#X connect 7 0 8 0;
#X connect 7 0 9 1;
#X connect 8 0 5 0;
#X connect 8 0 9 0;
#X connect 8 0 3 0;
#X connect 8 0 13 0;
#X connect 9 0 10 1;
#X connect 9 0 11 1;
#X connect 10 0 4 1;
#X connect 11 0 4 0;
#X connect 12 0 3 1;
#X connect 12 0 8 0;
#X connect 13 0 14 1;
#X connect 13 0 16 1;
#X connect 13 0 17 1;
#X connect 14 0 6 1;
#X connect 15 0 13 1;
#X connect 15 0 8 0;
#X connect 16 0 17 0;
#X connect 17 0 18 0;
#X connect 18 0 1 0;
#X connect 19 0 5 1;
#X connect 19 0 8 0;
