#N canvas 801 525 450 497 10;
#X obj 35 147 inlet;
#X obj 185 160 inlet;
#X text 228 159 Lambda;
#X text 35 128 Bang to generate new value;
#X text 65 29 Exponential distributed number generator;
#X text 65 59 Based on http://stackoverflow.com/a/2106564/1224456;
#X obj 185 268 * -1;
#X obj 35 216 * -1;
#X obj 35 239 + 1;
#X obj 35 327 outlet;
#X obj 35 170 random 1000;
#X obj 35 193 / 1000;
#X obj 35 262 log;
#X obj 35 305 / -1;
#X connect 0 0 10 0;
#X connect 1 0 6 0;
#X connect 6 0 13 1;
#X connect 7 0 8 0;
#X connect 8 0 12 0;
#X connect 10 0 11 0;
#X connect 11 0 7 0;
#X connect 12 0 13 0;
#X connect 13 0 9 0;
