#N canvas 276 255 1366 670 10;
#X obj 512 582 hsl 128 15 0 1 0 0 empty empty Main_output -2 -8 0 10
-262144 -1 -1 0 1;
#X obj 491 607 *~;
#X obj 491 650 dac~;
#N canvas 70 257 450 300 phase_to_step 0;
#X obj 12 37 * 4;
#X obj 12 89 int;
#X obj 12 116 change;
#X obj 12 14 inlet;
#X text 56 13 Convert ableton link phase counter to 16 steps sequence
number;
#X obj 12 143 outlet;
#X obj 12 63 t b f;
#X connect 0 0 6 0;
#X connect 1 0 2 0;
#X connect 2 0 5 0;
#X connect 3 0 0 0;
#X connect 6 0 1 0;
#X connect 6 1 1 1;
#X restore 63 71 pd phase_to_step;
#X floatatom 63 99 5 0 0 0 - - -, f 5;
#X obj 20 44 abl_link~ 1 0 4 120;
#X obj 63 125 8seq;
#X obj 491 125 8kit;
#N canvas 612 337 531 423 random_loader 0;
#X obj 87 379 outlet;
#X obj 29 39 inlet;
#X obj 110 242 textfile;
#X msg 204 210 read playlist.txt;
#X msg 133 210 rewind;
#N canvas 151 296 673 300 choice 0;
#X obj 118 96 list length;
#X obj 118 139 random;
#X obj 51 171 list split;
#X obj 84 200 list split 1;
#X obj 84 228 outlet;
#X text 229 58 Based on http://blog.rumblesan.com/post/53271744984/pure-data-snippets-random-list-element
Like python's random.choice: draw an item from a list.;
#X obj 51 8 inlet;
#X obj 51 37 t l l;
#X obj 118 117 t b f;
#X connect 0 0 8 0;
#X connect 1 0 2 1;
#X connect 2 1 3 0;
#X connect 3 0 4 0;
#X connect 6 0 7 0;
#X connect 7 0 2 0;
#X connect 7 1 0 0;
#X connect 8 0 1 0;
#X connect 8 1 1 1;
#X restore 110 293 pd choice;
#X obj 204 186 loadbang;
#X obj 29 74 route all sampler;
#X obj 87 183 t f b b;
#X obj 110 267 list;
#X obj 87 321 pack f s;
#X text 71 10 Load random samples into the 8kit;
#X obj 29 138 uzi 8;
#X msg 87 343 \$1 load \$2;
#X text 83 38 An "all" message loads random samples for all 8 samplers.
An "sampler X" message loads random sample to sampler X.;
#X connect 1 0 7 0;
#X connect 2 0 9 0;
#X connect 3 0 2 0;
#X connect 4 0 2 0;
#X connect 5 0 10 1;
#X connect 6 0 3 0;
#X connect 7 0 12 0;
#X connect 7 1 8 0;
#X connect 8 0 10 0;
#X connect 8 1 2 0;
#X connect 8 2 4 0;
#X connect 9 0 5 0;
#X connect 10 0 13 0;
#X connect 12 0 8 0;
#X connect 13 0 0 0;
#X restore 491 93 pd random_loader;
#X msg 491 59 all;
#X floatatom 534 40 5 0 0 0 - - -, f 5;
#X msg 534 59 sampler \$1;
#X connect 0 0 1 1;
#X connect 1 0 2 1;
#X connect 1 0 2 0;
#X connect 3 0 4 0;
#X connect 4 0 6 0;
#X connect 5 1 3 0;
#X connect 6 0 7 0;
#X connect 7 0 1 0;
#X connect 8 0 7 0;
#X connect 9 0 8 0;
#X connect 10 0 11 0;
#X connect 11 0 8 0;
