#N canvas 344 213 1269 867 10;
#X obj 512 582 hsl 128 15 0 1 0 0 empty empty Main_output -2 -8 0 10
-262144 -1 -1 10500 1;
#X obj 491 607 *~;
#X obj 491 650 dac~;
#N canvas 70 257 450 300 phase_to_step 0;
#X obj 12 37 * 4;
#X obj 12 89 int;
#X obj 12 116 change;
#X obj 12 14 inlet;
#X text 56 13 Convert ableton link phase counter to 16 steps sequence
number;
#X obj 12 143 outlet;
#X obj 12 63 t b f;
#X connect 0 0 6 0;
#X connect 1 0 2 0;
#X connect 2 0 5 0;
#X connect 3 0 0 0;
#X connect 6 0 1 0;
#X connect 6 1 1 1;
#X restore 63 71 pd phase_to_step;
#X floatatom 63 99 5 0 0 0 - - -, f 5;
#X obj 20 44 abl_link~ 1 0 4 120;
#X obj 63 125 8seq;
#X obj 491 125 8kit;
#N canvas 912 433 450 485 samples_loader 0;
#X text 19 16 Load samples into the 8kit;
#X obj 29 238 outlet;
#X obj 29 39 loadbang;
#X obj 95 39 inlet;
#X text 136 38 Bang manually;
#X msg 95 111 load 0 samples/kick.wav;
#X msg 95 133 load 1 samples/snare.wav;
#X msg 95 155 load 2 samples/noise.wav;
#X msg 95 177 load 3 samples/clap.wav;
#X msg 95 199 load 4 samples/hh.wav;
#X obj 29 65 bng 15 250 50 0 empty empty empty 17 7 0 10 -262144 -1
-1;
#X connect 2 0 10 0;
#X connect 3 0 10 0;
#X connect 5 0 1 0;
#X connect 6 0 1 0;
#X connect 7 0 1 0;
#X connect 8 0 1 0;
#X connect 9 0 1 0;
#X connect 10 0 5 0;
#X connect 10 0 6 0;
#X connect 10 0 7 0;
#X connect 10 0 8 0;
#X connect 10 0 9 0;
#X restore 491 93 pd samples_loader;
#X obj 491 72 bng 15 250 50 0 empty empty empty 17 7 0 10 -262144 -1
-1;
#X connect 0 0 1 1;
#X connect 1 0 2 1;
#X connect 1 0 2 0;
#X connect 3 0 4 0;
#X connect 4 0 6 0;
#X connect 5 1 3 0;
#X connect 6 0 7 0;
#X connect 7 0 1 0;
#X connect 8 0 7 0;
#X connect 9 0 8 0;
