#N canvas 376 234 440 534 10;
#X msg 23 69 listen 12000;
#X obj 23 91 netreceive -u -b;
#X obj 23 352 *~;
#X obj 23 437 *~;
#X obj 23 468 dac~;
#X obj 23 313 phasor~;
#X obj 23 42 bng 15 250 50 0 empty empty empty 17 7 0 10 -262144 -1
-1;
#N canvas 0 134 353 227 parse 0;
#X obj 33 73 oscparse;
#X obj 33 42 inlet;
#X obj 33 161 outlet;
#X obj 33 101 route list;
#X obj 87 161 outlet;
#X msg 33 130 \$1;
#X msg 87 130 \$2;
#X connect 0 0 3 0;
#X connect 1 0 0 0;
#X connect 3 0 5 0;
#X connect 3 0 6 0;
#X connect 5 0 2 0;
#X connect 6 0 4 0;
#X restore 23 115 pd parse;
#X obj 23 240 mtof;
#X obj 23 287 line~;
#X obj 231 287 line~;
#X obj 23 17 loadbang;
#X msg 23 264 \$1 200;
#X msg 231 264 \$1 20;
#X obj 23 386 hip~ 10;
#X floatatom 23 143 5 0 0 0 - - -, f 5;
#X obj 23 202 nbx 3 30 -1e+37 1e+37 0 0 empty empty Note 60 15 0 15
-262144 -1 -1 20 256;
#X obj 231 202 nbx 5 30 -1e+37 1e+37 0 0 empty empty Amp 90 15 0 15
-262144 -1 -1 0 256;
#X floatatom 231 143 5 0 0 0 - - -, f 5;
#X obj 23 164 bound_map 150 200 20 128;
#X obj 231 164 bound_map 190 250 0 1;
#X floatatom 105 143 5 0 0 0 - - -, f 5;
#X floatatom 303 143 5 0 0 0 - - -, f 5;
#N canvas 0 98 1366 670 interface 1;
#N canvas 0 170 667 429 interface 0;
#X obj 119 155 hsl 300 30 400 200 0 0 empty empty Pitch_sensitivity
0 -20 0 30 -204786 -1 -1 14950 1;
#X obj 119 235 hsl 300 30 300 200 0 0 empty empty Amplitude_sensitivity
0 -20 0 30 -204786 -1 -1 14950 1;
#X obj 69 49 loadbang;
#X msg 34 149 250;
#X obj 74 199 s pitch_sensitivity;
#X obj 72 274 s amp_sensitivity;
#X obj 119 306 hsl 300 30 0 1 0 0 empty empty Volume 0 -20 0 30 -204786
-1 -1 0 1;
#X obj 116 355 s volume;
#X obj 116 79 bng 30 250 50 0 empty empty Reset 32 15 0 20 -262144
-1 -1;
#X msg 34 172 0;
#X msg 34 126 300;
#X connect 0 0 4 0;
#X connect 1 0 5 0;
#X connect 2 0 8 0;
#X connect 3 0 1 0;
#X connect 6 0 7 0;
#X connect 8 0 3 0;
#X connect 8 0 9 0;
#X connect 8 0 10 0;
#X connect 9 0 6 0;
#X connect 10 0 0 0;
#X coords 0 -1 1 1 410 280 2 100 70;
#X restore 468 240 pd interface;
#X restore 309 36 pd interface;
#X obj 105 119 r pitch_sensitivity;
#X obj 303 119 r amp_sensitivity;
#X obj 41 410 r volume;
#X connect 0 0 1 0;
#X connect 1 0 7 0;
#X connect 2 0 14 0;
#X connect 3 0 4 0;
#X connect 3 0 4 1;
#X connect 5 0 2 0;
#X connect 6 0 0 0;
#X connect 7 0 15 0;
#X connect 7 1 18 0;
#X connect 8 0 12 0;
#X connect 9 0 5 0;
#X connect 10 0 2 1;
#X connect 11 0 6 0;
#X connect 12 0 9 0;
#X connect 13 0 10 0;
#X connect 14 0 3 0;
#X connect 15 0 19 0;
#X connect 16 0 8 0;
#X connect 17 0 13 0;
#X connect 18 0 20 0;
#X connect 19 0 16 0;
#X connect 20 0 17 0;
#X connect 21 0 19 2;
#X connect 22 0 20 2;
#X connect 24 0 21 0;
#X connect 25 0 22 0;
#X connect 26 0 3 1;
