#N canvas 799 1349 541 403 10;
#X obj 105 95 tgl 15 0 empty empty empty 17 7 0 10 -262144 -1 -1 1
1;
#X obj 160 189 * 1000;
#X text 86 15 Random banger;
#X text 86 35 Output bangs in poisson process timing;
#X obj 105 64 inlet;
#X text 149 64 On / off;
#X obj 239 63 inlet;
#X obj 160 160 exponential_gen;
#X msg 262 111 1;
#X obj 262 136 /;
#X obj 66 253 outlet;
#X obj 66 214 bng 15 250 50 0 empty empty empty 17 7 0 10 -262144 -1
-1;
#X obj 160 221 delay;
#X obj 239 87 t b b f;
#X obj 160 129 sel 1;
#X obj 66 167 spigot;
#X text 282 63 Mean period;
#X connect 0 0 14 0;
#X connect 0 0 15 1;
#X connect 1 0 12 0;
#X connect 4 0 0 0;
#X connect 6 0 13 0;
#X connect 7 0 1 0;
#X connect 8 0 9 0;
#X connect 9 0 7 1;
#X connect 11 0 7 0;
#X connect 11 0 10 0;
#X connect 12 0 15 0;
#X connect 13 0 7 0;
#X connect 13 1 8 0;
#X connect 13 2 9 1;
#X connect 14 0 7 0;
#X connect 15 0 11 0;
