#N canvas 206 176 901 592 10;
#X obj 136 18 inlet;
#X text 180 17 List of sampler playing params;
#X obj 19 212 line~;
#X obj 19 474 outlet~;
#X obj 675 88 loadbang;
#X obj 19 83 bng 30 250 50 0 empty empty empty 17 7 0 10 -262144 -1
-1;
#X obj 19 239 tabread~ \$0-buffer;
#X obj 675 116 bng 15 250 50 0 empty empty empty 17 7 0 10 -262144
-1 -1;
#X obj 38 379 env~;
#X obj 19 353 hip~ 20;
#X obj 20 450 *~;
#X msg 556 143 1;
#X msg 675 254 \; \$1 color \$2;
#X obj 675 227 pack s f;
#X obj 675 199 symbol \$0-canvas;
#X obj 801 199 + 33;
#X obj 801 172 random 8;
#X obj 675 145 t b b;
#X obj 177 252 soundfiler;
#X floatatom 177 284 5 0 0 1 num_of_samples - -, f 5;
#X obj 230 165 symbol \$0-buffer;
#X msg 177 220 read -resize \$1 \$2;
#X obj 177 188 pack s s;
#X obj 177 120 t a b;
#X floatatom 413 181 5 0.2 6 1 Rate - #0-rate, f 5;
#X obj 524 182 bng 13 250 50 0 empty empty Reset 17 7 0 10 -262144
-1 -1;
#X floatatom 413 198 5 0 4 1 Variance - #0-var, f 5;
#X msg 488 137 1;
#X msg 488 157 0;
#X obj 556 363 s \$0-vol;
#X obj 38 428 r \$0-vol;
#X obj 38 401 s \$0-env;
#N canvas 90 230 360 538 calc_line 0;
#X obj 17 114 int;
#X obj 17 453 pack;
#X obj 49 114 float;
#X obj 17 18 inlet;
#X text 67 18 Bang for playing sample;
#X obj 81 56 inlet;
#X text 124 55 Setting the length in samples;
#X obj 81 85 / 44.1;
#X text 129 84 Length in milliseconds;
#X obj 17 509 outlet;
#X obj 60 143 cnv 15 150 255 empty empty Calc_play_rate 20 12 0 14
-204800 -66577 0;
#X obj 49 415 *;
#X obj 124 281 r \$0-rate;
#X obj 17 85 t b b b;
#X obj 106 169 r \$0-var;
#X obj 67 219 random;
#X obj 106 196 * 100;
#X obj 67 248 / 100;
#X floatatom 100 416 5 0 0 1 Actual_play_rate - -, f 5;
#X obj 67 376 +;
#X obj 124 248 * 0.5;
#X obj 67 291 -;
#X obj 124 347 /;
#X obj 124 303 t b f;
#X msg 124 325 1;
#X msg 17 481 0 \, \$1 \$2;
#X connect 0 0 1 0;
#X connect 1 0 25 0;
#X connect 2 0 11 0;
#X connect 3 0 13 0;
#X connect 5 0 0 1;
#X connect 5 0 7 0;
#X connect 7 0 2 1;
#X connect 11 0 1 1;
#X connect 12 0 23 0;
#X connect 13 0 0 0;
#X connect 13 1 2 0;
#X connect 13 2 15 0;
#X connect 14 0 20 0;
#X connect 14 0 16 0;
#X connect 15 0 17 0;
#X connect 16 0 15 1;
#X connect 17 0 21 0;
#X connect 19 0 11 1;
#X connect 19 0 18 0;
#X connect 20 0 21 1;
#X connect 21 0 19 0;
#X connect 22 0 19 1;
#X connect 23 0 24 0;
#X connect 23 1 22 1;
#X connect 24 0 22 0;
#X connect 25 0 9 0;
#X restore 19 178 pd calc_line;
#X obj 524 199 bng 13 250 50 0 empty empty Reset 17 7 0 10 -262144
-1 -1;
#X obj 411 216 cnv 15 162 119 empty \$0-canvas empty 20 12 0 14 -262131
-66577 0;
#X obj 416 317 hsl 135 15 0 100 0 0 empty \$0-env empty -2 -8 0 10
-262144 -1 -1 11945 1;
#X obj 556 234 vsl 15 95 0 1 0 0 empty empty Vol -2 -9 0 10 -262144
-1 -1 9400 1;
#N canvas 0 116 450 250 (subpatch) 0;
#X array \$0-buffer 148309 float 2;
#X coords 0 1 148309 -1 140 80 1 0 0;
#X restore 413 232 graph;
#X obj 136 51 route bang load rate var;
#X obj 697 116 r \$0-loadfile;
#X obj 177 310 s \$0-loadfile;
#X obj 65 292 line~;
#X obj 19 327 *~;
#X msg 104 266 1;
#X obj 19 137 delay 5;
#X msg 65 266 0 5;
#X connect 0 0 38 0;
#X connect 2 0 6 0;
#X connect 4 0 7 0;
#X connect 5 0 45 0;
#X connect 5 0 44 0;
#X connect 6 0 42 0;
#X connect 7 0 11 0;
#X connect 7 0 17 0;
#X connect 7 0 25 0;
#X connect 7 0 33 0;
#X connect 8 0 31 0;
#X connect 9 0 8 0;
#X connect 9 0 10 0;
#X connect 10 0 3 0;
#X connect 11 0 36 0;
#X connect 13 0 12 0;
#X connect 14 0 13 0;
#X connect 15 0 13 1;
#X connect 16 0 15 0;
#X connect 17 0 14 0;
#X connect 17 1 16 0;
#X connect 18 0 19 0;
#X connect 19 0 32 1;
#X connect 19 0 40 0;
#X connect 20 0 22 1;
#X connect 21 0 18 0;
#X connect 22 0 21 0;
#X connect 23 0 22 0;
#X connect 23 1 20 0;
#X connect 25 0 27 0;
#X connect 27 0 24 0;
#X connect 28 0 26 0;
#X connect 30 0 10 1;
#X connect 32 0 2 0;
#X connect 33 0 28 0;
#X connect 36 0 29 0;
#X connect 38 0 5 0;
#X connect 38 1 23 0;
#X connect 38 2 24 0;
#X connect 38 3 26 0;
#X connect 39 0 17 0;
#X connect 41 0 42 1;
#X connect 42 0 9 0;
#X connect 43 0 41 0;
#X connect 44 0 32 0;
#X connect 44 0 43 0;
#X connect 45 0 41 0;
#X coords 0 -1 1 1 164 158 2 410 178;
