#N canvas 0 458 566 495 10;
#X obj 222 167 cnv 15 72 19 empty empty empty 20 12 0 14 -99865 -66577
0;
#X obj 77 167 cnv 15 72 19 empty empty empty 20 12 0 14 -99865 -66577
0;
#X obj 96 169 tgl 15 0 empty empty empty 17 7 0 10 -262144 -1 -1 0
1;
#X obj 78 169 tgl 15 0 empty empty empty 17 7 0 10 -262144 -1 -1 0
1;
#X obj 132 169 tgl 15 0 empty empty empty 17 7 0 10 -262144 -1 -1 0
1;
#X obj 114 169 tgl 15 0 empty empty empty 17 7 0 10 -262144 -1 -1 0
1;
#X obj 169 169 tgl 15 0 empty empty empty 17 7 0 10 -262144 -1 -1 0
1;
#X obj 151 169 tgl 15 0 empty empty empty 17 7 0 10 -262144 -1 -1 0
1;
#X obj 205 169 tgl 15 0 empty empty empty 17 7 0 10 -262144 -1 -1 0
1;
#X obj 187 169 tgl 15 0 empty empty empty 17 7 0 10 -262144 -1 -1 0
1;
#X obj 241 169 tgl 15 0 empty empty empty 17 7 0 10 -262144 -1 -1 0
1;
#X obj 223 169 tgl 15 0 empty empty empty 17 7 0 10 -262144 -1 -1 0
1;
#X obj 277 169 tgl 15 0 empty empty empty 17 7 0 10 -262144 -1 -1 0
1;
#X obj 259 169 tgl 15 0 empty empty empty 17 7 0 10 -262144 -1 -1 0
1;
#X obj 314 169 tgl 15 0 empty empty empty 17 7 0 10 -262144 -1 -1 0
1;
#X obj 296 169 tgl 15 0 empty empty empty 17 7 0 10 -262144 -1 -1 0
1;
#X obj 350 169 tgl 15 0 empty empty empty 17 7 0 10 -262144 -1 -1 0
1;
#X obj 332 169 tgl 15 0 empty empty empty 17 7 0 10 -262144 -1 -1 0
1;
#X obj 51 38 inlet;
#X obj 51 206 sel 0 1 2 3 4 5 6 7 8 9 10 11 12 13 14 15;
#X obj 155 439 outlet;
#X obj 60 242 int;
#X obj 78 262 int;
#X obj 96 282 int;
#X obj 114 302 int;
#X obj 133 242 int;
#X obj 151 262 int;
#X obj 169 282 int;
#X obj 187 302 int;
#X obj 205 242 int;
#X obj 223 262 int;
#X obj 241 282 int;
#X obj 259 302 int;
#X obj 278 242 int;
#X obj 296 262 int;
#X obj 314 282 int;
#X obj 332 302 int;
#X text 91 39 Step number;
#N canvas 0 170 450 448 randomizer 0;
#X obj 49 159 until;
#X msg 49 135 16;
#X obj 49 183 t b b;
#X obj 104 153 + 1;
#X obj 49 207 int 0;
#X obj 104 178 % 16;
#X obj 49 231 t f b;
#X obj 49 333 pack;
#X obj 49 82 inlet;
#X obj 49 109 bng 15 250 50 0 empty empty empty 17 7 0 10 -262144 -1
-1;
#X obj 49 362 outlet;
#X text 53 21 Output a burst of (index \, on_or_off) lists.;
#X obj 180 82 inlet;
#X text 89 81 Bang;
#X text 219 81 Density between 0 and 1;
#X obj 81 255 random 100;
#X obj 81 280 / 100;
#X obj 81 306 <;
#X connect 0 0 2 0;
#X connect 1 0 0 0;
#X connect 2 0 4 0;
#X connect 3 0 5 0;
#X connect 4 0 3 0;
#X connect 4 0 6 0;
#X connect 5 0 4 1;
#X connect 6 0 7 0;
#X connect 6 1 15 0;
#X connect 7 0 10 0;
#X connect 8 0 9 0;
#X connect 9 0 1 0;
#X connect 12 0 17 1;
#X connect 15 0 16 0;
#X connect 16 0 17 0;
#X connect 17 0 7 1;
#X restore 78 94 pd randomizer;
#X obj 78 121 route 0 1 2 3 4 5 6 7 8 9 10 11 12 13 14 15;
#X obj 369 146 cnv 15 120 42 empty empty empty 20 12 0 14 -261682 -66577
0;
#X obj 431 149 bng 15 250 50 0 empty empty Randomize -60 7 0 10 -262144
-1 -1;
#X obj 434 169 hsl 50 15 0 1 0 0 empty empty Density -63 7 0 10 -262144
-1 -1 0 1;
#X obj 491 95 loadbang;
#X text 222 71 Make it curvey;
#X msg 491 118 0.4;
#X obj 166 71 pow 1.3;
#X obj 155 414 sel 1;
#X connect 2 0 22 1;
#X connect 3 0 21 1;
#X connect 4 0 24 1;
#X connect 5 0 23 1;
#X connect 6 0 26 1;
#X connect 7 0 25 1;
#X connect 8 0 28 1;
#X connect 9 0 27 1;
#X connect 10 0 30 1;
#X connect 11 0 29 1;
#X connect 12 0 32 1;
#X connect 13 0 31 1;
#X connect 14 0 34 1;
#X connect 15 0 33 1;
#X connect 16 0 36 1;
#X connect 17 0 35 1;
#X connect 18 0 19 0;
#X connect 19 0 21 0;
#X connect 19 1 22 0;
#X connect 19 2 23 0;
#X connect 19 3 24 0;
#X connect 19 4 25 0;
#X connect 19 5 26 0;
#X connect 19 6 27 0;
#X connect 19 7 28 0;
#X connect 19 8 29 0;
#X connect 19 9 30 0;
#X connect 19 10 31 0;
#X connect 19 11 32 0;
#X connect 19 12 33 0;
#X connect 19 13 34 0;
#X connect 19 14 35 0;
#X connect 19 15 36 0;
#X connect 21 0 47 0;
#X connect 22 0 47 0;
#X connect 23 0 47 0;
#X connect 24 0 47 0;
#X connect 25 0 47 0;
#X connect 26 0 47 0;
#X connect 27 0 47 0;
#X connect 28 0 47 0;
#X connect 29 0 47 0;
#X connect 30 0 47 0;
#X connect 31 0 47 0;
#X connect 32 0 47 0;
#X connect 33 0 47 0;
#X connect 34 0 47 0;
#X connect 35 0 47 0;
#X connect 36 0 47 0;
#X connect 38 0 39 0;
#X connect 39 0 3 0;
#X connect 39 1 2 0;
#X connect 39 2 5 0;
#X connect 39 3 4 0;
#X connect 39 4 7 0;
#X connect 39 5 6 0;
#X connect 39 6 9 0;
#X connect 39 7 8 0;
#X connect 39 8 11 0;
#X connect 39 9 10 0;
#X connect 39 10 13 0;
#X connect 39 11 12 0;
#X connect 39 12 15 0;
#X connect 39 13 14 0;
#X connect 39 14 17 0;
#X connect 39 15 16 0;
#X connect 41 0 38 0;
#X connect 42 0 46 0;
#X connect 43 0 45 0;
#X connect 45 0 42 0;
#X connect 46 0 38 1;
#X connect 47 0 20 0;
#X coords 0 -1 1 1 416 44 1 74 145;
