#N canvas 388 1312 342 500 10;
#X msg 23 69 listen 12000;
#X obj 23 91 netreceive -u -b;
#X obj 23 140 unpack;
#X obj 23 324 *~;
#X obj 23 409 *~;
#X obj 23 440 dac~;
#X obj 44 386 hsl 128 15 0 1 0 0 empty empty empty -2 -8 0 10 -262144
-1 -1 9000 1;
#X floatatom 23 171 5 0 0 0 - - -, f 5;
#X floatatom 90 171 5 0 0 0 - - -, f 5;
#X obj 23 272 phasor~;
#X obj 23 42 bng 15 250 50 0 empty empty empty 17 7 0 10 -262144 -1
-1;
#N canvas 0 98 450 300 parse 0;
#X obj 33 104 route list;
#X obj 33 135 route wek;
#X obj 33 166 route outputs;
#X obj 33 73 oscparse;
#X obj 33 42 inlet;
#X obj 33 197 outlet;
#X connect 0 0 1 0;
#X connect 1 0 2 0;
#X connect 2 0 5 0;
#X connect 3 0 0 0;
#X connect 4 0 3 0;
#X restore 23 115 pd parse;
#X obj 23 199 mtof;
#X obj 23 246 line~;
#X obj 90 246 line~;
#X obj 23 17 loadbang;
#X msg 23 223 \$1 200;
#X msg 90 223 \$1 20;
#X obj 23 358 hip~ 10;
#X connect 0 0 1 0;
#X connect 1 0 11 0;
#X connect 2 0 7 0;
#X connect 2 1 8 0;
#X connect 3 0 18 0;
#X connect 4 0 5 0;
#X connect 4 0 5 1;
#X connect 6 0 4 1;
#X connect 7 0 12 0;
#X connect 8 0 17 0;
#X connect 9 0 3 0;
#X connect 10 0 0 0;
#X connect 11 0 2 0;
#X connect 12 0 16 0;
#X connect 13 0 9 0;
#X connect 14 0 3 1;
#X connect 15 0 10 0;
#X connect 16 0 13 0;
#X connect 17 0 14 0;
#X connect 18 0 4 0;
