#N canvas 0 242 450 300 10;
#X text 124 33 Like Max/MSP [uzi];
#X obj 29 151 until;
#X obj 29 178 int;
#X obj 64 178 + 1;
#X obj 29 54 inlet;
#X obj 29 218 outlet;
#X obj 29 97 t b 0;
#X obj 29 123 int \$1;
#X connect 1 0 2 0;
#X connect 2 0 5 0;
#X connect 2 0 3 0;
#X connect 3 0 2 1;
#X connect 4 0 6 0;
#X connect 6 0 7 0;
#X connect 6 1 2 1;
#X connect 7 0 1 0;
